<svg t="1600157304569" class="icon" viewBox="0 0 1024 1024" version="1.1" xmlns="http://www.w3.org/2000/svg" p-id="1242" width="200" height="200"><path d="M692.313043 347.269565c11.130435 0 22.26087 0 35.617391 2.226087C696.765217 204.8 540.93913 95.721739 362.852174 95.721739c-198.121739 0-360.626087 135.791304-360.626087 307.2 0 100.173913 53.426087 180.313043 144.695652 242.643478L111.304348 756.869565l126.886957-62.330435c44.521739 8.904348 82.365217 17.808696 126.886957 17.808696 11.130435 0 22.26087 0 33.391304-2.226087-6.678261-24.486957-11.130435-48.973913-11.130435-75.686957C385.113043 476.382609 520.904348 347.269565 692.313043 347.269565L692.313043 347.269565zM498.643478 249.321739c26.713043 0 44.521739 17.808696 44.521739 44.521739 0 26.713043-17.808696 44.521739-44.521739 44.521739-26.713043 0-53.426087-17.808696-53.426087-44.521739C445.217391 267.130435 471.930435 249.321739 498.643478 249.321739L498.643478 249.321739zM244.869565 340.591304c-26.713043 0-53.426087-17.808696-53.426087-44.521739 0-26.713043 26.713043-44.521739 53.426087-44.521739 26.713043 0 44.521739 17.808696 44.521739 44.521739C291.617391 322.782609 273.808696 340.591304 244.869565 340.591304L244.869565 340.591304zM244.869565 340.591304" p-id="1243"></path><path d="M1021.773913 629.982609c0-144.695652-144.695652-262.678261-307.2-262.678261-171.408696 0-307.2 117.982609-307.2 262.678261 0 144.695652 135.791304 262.678261 307.2 262.678261 35.617391 0 71.234783-8.904348 109.078261-17.808696l97.947826 53.426087-26.713043-91.269565C968.347826 783.582609 1021.773913 710.121739 1021.773913 629.982609L1021.773913 629.982609zM616.626087 583.234783c-17.808696 0-35.617391-17.808696-35.617391-35.617391 0-17.808696 17.808696-35.617391 35.617391-35.617391 26.713043 0 44.521739 17.808696 44.521739 35.617391C661.147826 565.426087 643.33913 583.234783 616.626087 583.234783L616.626087 583.234783zM814.747826 583.234783c-17.808696 0-35.617391-17.808696-35.617391-35.617391 0-17.808696 17.808696-35.617391 35.617391-35.617391 26.713043 0 44.521739 17.808696 44.521739 35.617391C859.269565 565.426087 841.46087 583.234783 814.747826 583.234783L814.747826 583.234783zM814.747826 583.234783" p-id="1244"></path></svg>